<?xml version="1.0" encoding="UTF-8" standalone="no"?>
<!-- Created with Inkscape (http://www.inkscape.org/) -->

<svg
   xmlns:dc="http://purl.org/dc/elements/1.1/"
   xmlns:cc="http://creativecommons.org/ns#"
   xmlns:rdf="http://www.w3.org/1999/02/22-rdf-syntax-ns#"
   xmlns:svg="http://www.w3.org/2000/svg"
   xmlns="http://www.w3.org/2000/svg"
   xmlns:sodipodi="http://sodipodi.sourceforge.net/DTD/sodipodi-0.dtd"
   xmlns:inkscape="http://www.inkscape.org/namespaces/inkscape"
   width="197.21605mm"
   height="104.84568mm"
   viewBox="0 0 698.79702 371.50044"
   id="svg10075"
   version="1.1"
   inkscape:version="0.91 r13725"
   sodipodi:docname="relative_transform.svg">
  <defs
     id="defs10077">
    <marker
       inkscape:stockid="Arrow1Lend"
       orient="auto"
       refY="0"
       refX="0"
       id="Arrow1Lend"
       style="overflow:visible"
       inkscape:isstock="true">
      <path
         id="path10794"
         d="M 0,0 5,-5 -12.5,0 5,5 0,0 Z"
         style="fill:#000000;fill-opacity:1;fill-rule:evenodd;stroke:#000000;stroke-width:1pt;stroke-opacity:1"
         transform="matrix(-0.8,0,0,-0.8,-10,0)"
         inkscape:connector-curvature="0" />
    </marker>
    <marker
       inkscape:stockid="Arrow1Lstart"
       orient="auto"
       refY="0"
       refX="0"
       id="Arrow1Lstart"
       style="overflow:visible"
       inkscape:isstock="true">
      <path
         id="path10791"
         d="M 0,0 5,-5 -12.5,0 5,5 0,0 Z"
         style="fill:#000000;fill-opacity:1;fill-rule:evenodd;stroke:#000000;stroke-width:1pt;stroke-opacity:1"
         transform="matrix(0.8,0,0,0.8,10,0)"
         inkscape:connector-curvature="0" />
    </marker>
    <marker
       inkscape:stockid="Arrow1Lstart"
       orient="auto"
       refY="0"
       refX="0"
       id="Arrow1Lstart-2"
       style="overflow:visible"
       inkscape:isstock="true">
      <path
         id="path10791-0"
         d="M 0,0 5,-5 -12.5,0 5,5 0,0 Z"
         style="fill:#000000;fill-opacity:1;fill-rule:evenodd;stroke:#000000;stroke-width:1pt;stroke-opacity:1"
         transform="matrix(0.8,0,0,0.8,10,0)"
         inkscape:connector-curvature="0" />
    </marker>
    <marker
       inkscape:stockid="Arrow1Lend"
       orient="auto"
       refY="0"
       refX="0"
       id="Arrow1Lend-2"
       style="overflow:visible"
       inkscape:isstock="true">
      <path
         id="path10794-3"
         d="M 0,0 5,-5 -12.5,0 5,5 0,0 Z"
         style="fill:#000000;fill-opacity:1;fill-rule:evenodd;stroke:#000000;stroke-width:1pt;stroke-opacity:1"
         transform="matrix(-0.8,0,0,-0.8,-10,0)"
         inkscape:connector-curvature="0" />
    </marker>
  </defs>
  <sodipodi:namedview
     id="base"
     pagecolor="#ffffff"
     bordercolor="#666666"
     borderopacity="1.0"
     inkscape:pageopacity="0.0"
     inkscape:pageshadow="2"
     inkscape:zoom="5.6"
     inkscape:cx="549.92077"
     inkscape:cy="138.86363"
     inkscape:document-units="px"
     inkscape:current-layer="g4492"
     showgrid="false"
     inkscape:snap-bbox="false"
     inkscape:object-paths="true"
     inkscape:snap-global="true"
     fit-margin-top="0"
     fit-margin-left="0"
     fit-margin-right="0"
     fit-margin-bottom="0"
     inkscape:window-width="3710"
     inkscape:window-height="2112"
     inkscape:window-x="130"
     inkscape:window-y="48"
     inkscape:window-maximized="1" />
  <metadata
     id="metadata10080">
    <rdf:RDF>
      <cc:Work
         rdf:about="">
        <dc:format>image/svg+xml</dc:format>
        <dc:type
           rdf:resource="http://purl.org/dc/dcmitype/StillImage" />
        <dc:title></dc:title>
      </cc:Work>
    </rdf:RDF>
  </metadata>
  <g
     inkscape:label="Layer 1"
     inkscape:groupmode="layer"
     id="layer1"
     transform="translate(-30.742356,-575.36221)">
    <g
       id="g4492"
       transform="translate(-3721.935,-319.51822)">
      <path
         id="path10692"
         style="opacity:0.5;fill:#008000"
         d="m 3801.4576,978.15668 c 1.9183,-2.51959 4.2713,-2.60966 5.52,-0.21118 1.3419,2.57741 -0.076,5.53128 -2.631,5.48059 -3.3298,-0.0661 -4.8038,-2.75447 -2.889,-5.26941 z m -40.4441,-40.05013 c -3.7448,-6.43493 -5.9738,-14.87224 -4.8423,-18.33061 1.2494,-3.81907 5.8442,-7.25861 11.1398,-8.33927 6.8295,-1.39359 23.8282,-1.08841 28.2805,0.50799 8.7666,3.143 10.7456,10.69909 5.6823,21.69578 -4.503,9.78003 -5.1489,10.42975 -7.4741,7.5174 -1.7433,-2.18347 -1.6733,-3.16195 0.5743,-8.03994 4.2801,-9.28872 4.0387,-12.273 -1.1067,-13.6777 -2.2373,-0.61071 -2.4313,-0.24538 -3.8564,7.266 -1.9365,10.20577 -2.1105,10.59149 -5.0151,11.12491 -2.361,0.43368 -2.4021,0.27937 -1.1589,-4.35482 0.7089,-2.64243 1.2948,-7.3651 1.3021,-10.49483 l 0.013,-5.69031 -4.6553,-0.10591 -4.6553,-0.10585 -0.099,4.45772 c -0.054,2.45185 0.5218,7.1691 1.2802,10.48271 1.3364,5.83913 1.2953,6.01965 -1.3315,5.85475 -2.6607,-0.16693 -2.7425,-0.3473 -4.4562,-9.82781 -1.6613,-9.19073 -1.8466,-9.61922 -3.8322,-8.8584 -4.4356,1.69961 -5.3175,4.58885 -3.0817,10.09725 1.1635,2.86657 2.6552,5.88791 3.3148,6.71409 1.0925,1.36838 -0.7352,6.31287 -2.5028,6.77096 -0.385,0.0998 -1.969,-1.99907 -3.52,-4.66411 z m -0.3964,31.92603 c 0.5714,-15.48479 3.202,-25.06736 7.9143,-28.82959 2.9265,-2.33648 19.5608,-2.86692 22.7573,-0.7256 4.5738,3.06381 7.9108,14.42724 8.4826,28.8845 0.177,4.47705 -0.028,8.73776 -0.4565,9.4684 -1.1778,2.00997 -7.2069,2.88159 -20.0624,2.90021 -9.7346,0.0141 -17.9268,-0.97989 -18.7738,-2.27792 -0.1089,-0.16674 -0.046,-4.40577 0.1385,-9.42 z m -7.9128,9.47886 c 0.4363,-3.92429 5.3284,-4.20558 6.7943,-0.39136 0.6161,1.60293 0.2236,2.52733 -1.5413,3.62981 -2.6378,1.64791 -5.5938,-0.17442 -5.253,-3.23845 z"
         inkscape:connector-curvature="0" />
      <path
         inkscape:connector-curvature="0"
         d="m 3879.3147,978.15668 c 1.9183,-2.51959 4.2713,-2.60966 5.52,-0.21118 1.3419,2.57741 -0.076,5.53128 -2.631,5.48059 -3.3298,-0.0661 -4.8038,-2.75447 -2.889,-5.26941 z m -40.4441,-40.05013 c -3.7448,-6.43493 -5.9738,-14.87224 -4.8423,-18.33061 1.2494,-3.81907 5.8442,-7.25861 11.1398,-8.33927 6.8295,-1.39359 23.8282,-1.08841 28.2805,0.50799 8.7666,3.143 10.7456,10.69909 5.6823,21.69578 -4.503,9.78003 -5.1489,10.42975 -7.4741,7.5174 -1.7433,-2.18347 -1.6733,-3.16195 0.5743,-8.03994 4.2801,-9.28872 4.0387,-12.273 -1.1067,-13.6777 -2.2373,-0.61071 -2.4313,-0.24538 -3.8564,7.266 -1.9365,10.20577 -2.1105,10.59149 -5.0151,11.12491 -2.361,0.43368 -2.4021,0.27937 -1.1589,-4.35482 0.7089,-2.64243 1.2948,-7.3651 1.3021,-10.49483 l 0.013,-5.69031 -4.6553,-0.10591 -4.6553,-0.10585 -0.099,4.45772 c -0.054,2.45185 0.5218,7.1691 1.2802,10.48271 1.3364,5.83913 1.2953,6.01965 -1.3315,5.85475 -2.6607,-0.16693 -2.7425,-0.3473 -4.4562,-9.82781 -1.6613,-9.19073 -1.8466,-9.61922 -3.8322,-8.8584 -4.4356,1.69961 -5.3175,4.58885 -3.0817,10.09725 1.1635,2.86657 2.6552,5.88791 3.3148,6.71409 1.0925,1.36838 -0.7352,6.31287 -2.5028,6.77096 -0.385,0.0998 -1.969,-1.99907 -3.52,-4.66411 z m -0.3964,31.92603 c 0.5714,-15.48479 3.202,-25.06736 7.9143,-28.82959 2.9265,-2.33648 19.5608,-2.86692 22.7573,-0.7256 4.5738,3.06381 7.9108,14.42724 8.4826,28.8845 0.177,4.47705 -0.028,8.73776 -0.4565,9.4684 -1.1778,2.00997 -7.2069,2.88159 -20.0624,2.90021 -9.7346,0.0141 -17.9268,-0.97989 -18.7738,-2.27792 -0.1089,-0.16674 -0.046,-4.40577 0.1385,-9.42 z m -7.9128,9.47886 c 0.4363,-3.92429 5.3284,-4.20558 6.7943,-0.39136 0.6161,1.60293 0.2236,2.52733 -1.5413,3.62981 -2.6378,1.64791 -5.5938,-0.17442 -5.253,-3.23845 z"
         style="opacity:0.5;fill:#008000"
         id="path10717" />
      <path
         id="path10719"
         style="opacity:0.5;fill:#008000"
         d="m 3956.4576,978.15668 c 1.9183,-2.51959 4.2713,-2.60966 5.52,-0.21118 1.3419,2.57741 -0.076,5.53128 -2.631,5.48059 -3.3298,-0.0661 -4.8038,-2.75447 -2.889,-5.26941 z m -40.4441,-40.05013 c -3.7448,-6.43493 -5.9738,-14.87224 -4.8423,-18.33061 1.2494,-3.81907 5.8442,-7.25861 11.1398,-8.33927 6.8295,-1.39359 23.8282,-1.08841 28.2805,0.50799 8.7666,3.143 10.7456,10.69909 5.6823,21.69578 -4.503,9.78003 -5.1489,10.42975 -7.4741,7.5174 -1.7433,-2.18347 -1.6733,-3.16195 0.5743,-8.03994 4.2801,-9.28872 4.0387,-12.273 -1.1067,-13.6777 -2.2373,-0.61071 -2.4313,-0.24538 -3.8564,7.266 -1.9365,10.20577 -2.1105,10.59149 -5.0151,11.12491 -2.361,0.43368 -2.4021,0.27937 -1.1589,-4.35482 0.7089,-2.64243 1.2948,-7.3651 1.3021,-10.49483 l 0.013,-5.69031 -4.6553,-0.10591 -4.6553,-0.10585 -0.099,4.45772 c -0.054,2.45185 0.5218,7.1691 1.2802,10.48271 1.3364,5.83913 1.2953,6.01965 -1.3315,5.85475 -2.6607,-0.16693 -2.7425,-0.3473 -4.4562,-9.82781 -1.6613,-9.19073 -1.8466,-9.61922 -3.8322,-8.8584 -4.4356,1.69961 -5.3175,4.58885 -3.0817,10.09725 1.1635,2.86657 2.6552,5.88791 3.3148,6.71409 1.0925,1.36838 -0.7352,6.31287 -2.5028,6.77096 -0.385,0.0998 -1.969,-1.99907 -3.52,-4.66411 z m -0.3964,31.92603 c 0.5714,-15.48479 3.202,-25.06736 7.9143,-28.82959 2.9265,-2.33648 19.5608,-2.86692 22.7573,-0.7256 4.5738,3.06381 7.9108,14.42724 8.4826,28.8845 0.177,4.47705 -0.028,8.73776 -0.4565,9.4684 -1.1778,2.00997 -7.2069,2.88159 -20.0624,2.90021 -9.7346,0.0141 -17.9268,-0.97989 -18.7738,-2.27792 -0.1089,-0.16674 -0.046,-4.40577 0.1385,-9.42 z m -7.9128,9.47886 c 0.4363,-3.92429 5.3284,-4.20558 6.7943,-0.39136 0.6161,1.60293 0.2236,2.52733 -1.5413,3.62981 -2.6378,1.64791 -5.5938,-0.17442 -5.253,-3.23845 z"
         inkscape:connector-curvature="0" />
      <path
         inkscape:connector-curvature="0"
         d="m 4013.1582,1049.8543 c 3.138,-0.4252 4.8655,1.175 4.0525,3.7539 -0.8737,2.7714 -3.9649,3.8574 -5.7357,2.0149 -2.3079,-2.4012 -1.4492,-5.3444 1.6832,-5.7688 z m -0.2786,-56.91799 c 1.9022,-7.1982 6.2921,-14.7404 9.5376,-16.38574 3.584,-1.81703 9.2651,-1.00014 13.7738,1.98027 5.8146,3.84377 17.6187,16.07947 19.6381,20.35657 3.9765,8.42129 0.033,15.16359 -11.3232,19.35919 -10.0996,3.7314 -11.0158,3.7341 -10.6006,0.031 0.3113,-2.7766 1.0526,-3.419 6.0912,-5.279 9.5946,-3.5416 11.5341,-5.8225 8.889,-10.4541 -1.1501,-2.0139 -1.5456,-1.8927 -7.8647,2.4109 -8.5859,5.8473 -8.9817,5.997 -11.4127,4.3203 -1.9761,-1.3628 -1.8961,-1.501 2.2599,-3.8988 2.3697,-1.3672 6.1234,-4.2923 8.3416,-6.50019 l 4.0329,-4.0145 -3.2169,-3.3667 -3.217,-3.3666 -3.222,3.0821 c -1.7719,1.6955 -4.7004,5.4382 -6.5072,8.3176 -3.1839,5.07389 -3.3406,5.17239 -5.0814,3.19839 -1.7634,-1.9994 -1.6937,-2.1848 3.7983,-10.10029 5.3241,-7.6735 5.496,-8.1076 3.554,-8.9736 -4.3382,-1.9347 -7.0048,-0.5152 -9.3189,4.9607 -1.2043,2.8497 -2.2859,6.0409 -2.4037,7.0915 -0.195,1.7401 -4.9837,3.944 -6.5575,3.0181 -0.3428,-0.2017 0.021,-2.8059 0.809,-5.7871 z m -22.8554,22.29479 c 11.3534,-10.5454 19.9894,-15.46109 25.9818,-14.7893 3.7215,0.4172 15.8588,11.8043 16.6049,15.5787 1.0677,5.4006 -4.6078,15.7954 -14.4263,26.4225 -3.0406,3.2909 -6.1983,6.1588 -7.0179,6.3724 -2.2542,0.5884 -7.1337,-3.0585 -16.2371,-12.1355 -6.8933,-6.8735 -11.9833,-13.369 -11.6643,-14.8858 0.041,-0.1949 3.0828,-3.1479 6.7589,-6.563 z m -12.2978,1.1074 c 3.0834,-2.4664 6.7415,0.7939 5.081,4.5275 -0.6978,1.5691 -1.629,1.9452 -3.6565,1.4768 -3.0305,-0.6999 -3.8321,-4.0788 -1.4245,-6.0043 z"
         style="opacity:0.5;fill:#008000"
         id="path10721" />
      <path
         inkscape:connector-curvature="0"
         d="m 3913.713,1054.3903 c -1.9183,2.5196 -4.2713,2.6097 -5.52,0.2112 -1.3419,-2.5774 0.076,-5.5313 2.631,-5.4806 3.3298,0.066 4.8038,2.7545 2.889,5.2694 z m 40.4441,40.0501 c 3.7448,6.435 5.9738,14.8723 4.8423,18.3306 -1.2494,3.8191 -5.8442,7.2586 -11.1398,8.3393 -6.8295,1.3936 -23.8282,1.0884 -28.2805,-0.508 -8.7666,-3.143 -10.7456,-10.6991 -5.6823,-21.6958 4.503,-9.78 5.1489,-10.4297 7.4741,-7.5174 1.7433,2.1835 1.6733,3.162 -0.5743,8.04 -4.2801,9.2887 -4.0387,12.273 1.1067,13.6777 2.2373,0.6107 2.4313,0.2454 3.8564,-7.266 1.9365,-10.2058 2.1105,-10.5915 5.0151,-11.1249 2.361,-0.4337 2.4021,-0.2794 1.1589,4.3548 -0.7089,2.6424 -1.2948,7.3651 -1.3021,10.4948 l -0.013,5.6903 4.6553,0.1059 4.6553,0.1059 0.099,-4.4577 c 0.054,-2.4519 -0.5218,-7.1691 -1.2802,-10.4827 -1.3364,-5.8392 -1.2953,-6.0197 1.3315,-5.8548 2.6607,0.1669 2.7425,0.3473 4.4562,9.8278 1.6613,9.1907 1.8466,9.6192 3.8322,8.8584 4.4356,-1.6996 5.3175,-4.5888 3.0817,-10.0972 -1.1635,-2.8666 -2.6552,-5.8879 -3.3148,-6.7141 -1.0925,-1.3684 0.7352,-6.3129 2.5028,-6.771 0.385,-0.1 1.969,1.9991 3.52,4.6641 z m 0.3964,-31.926 c -0.5714,15.4848 -3.202,25.0674 -7.9143,28.8296 -2.9265,2.3365 -19.5608,2.8669 -22.7573,0.7256 -4.5738,-3.0638 -7.9108,-14.4273 -8.4826,-28.8845 -0.177,-4.4771 0.028,-8.7378 0.4565,-9.4684 1.1778,-2.01 7.2069,-2.8816 20.0624,-2.9002 9.7346,-0.014 17.9268,0.9799 18.7738,2.2779 0.1089,0.1667 0.046,4.4058 -0.1385,9.42 z m 7.9128,-9.4789 c -0.4363,3.9243 -5.3284,4.2056 -6.7943,0.3914 -0.6161,-1.6029 -0.2236,-2.5273 1.5413,-3.6298 2.6378,-1.6479 5.5938,0.1744 5.253,3.2384 z"
         style="opacity:0.5;fill:#008000"
         id="path10723" />
      <path
         id="path10725"
         style="opacity:0.5;fill:#008000"
         d="m 3835.8559,1054.3903 c -1.9183,2.5196 -4.2713,2.6097 -5.52,0.2112 -1.3419,-2.5774 0.076,-5.5313 2.631,-5.4806 3.3298,0.066 4.8038,2.7545 2.889,5.2694 z m 40.4441,40.0501 c 3.7448,6.435 5.9738,14.8723 4.8423,18.3306 -1.2494,3.8191 -5.8442,7.2586 -11.1398,8.3393 -6.8295,1.3936 -23.8282,1.0884 -28.2805,-0.508 -8.7666,-3.143 -10.7456,-10.6991 -5.6823,-21.6958 4.503,-9.78 5.1489,-10.4297 7.4741,-7.5174 1.7433,2.1835 1.6733,3.162 -0.5743,8.04 -4.2801,9.2887 -4.0387,12.273 1.1067,13.6777 2.2373,0.6107 2.4313,0.2454 3.8564,-7.266 1.9365,-10.2058 2.1105,-10.5915 5.0151,-11.1249 2.361,-0.4337 2.4021,-0.2794 1.1589,4.3548 -0.7089,2.6424 -1.2948,7.3651 -1.3021,10.4948 l -0.013,5.6903 4.6553,0.1059 4.6553,0.1059 0.099,-4.4577 c 0.054,-2.4519 -0.5218,-7.1691 -1.2802,-10.4827 -1.3364,-5.8392 -1.2953,-6.0197 1.3315,-5.8548 2.6607,0.1669 2.7425,0.3473 4.4562,9.8278 1.6613,9.1907 1.8466,9.6192 3.8322,8.8584 4.4356,-1.6996 5.3175,-4.5888 3.0817,-10.0972 -1.1635,-2.8666 -2.6552,-5.8879 -3.3148,-6.7141 -1.0925,-1.3684 0.7352,-6.3129 2.5028,-6.771 0.385,-0.1 1.969,1.9991 3.52,4.6641 z m 0.3964,-31.926 c -0.5714,15.4848 -3.202,25.0674 -7.9143,28.8296 -2.9265,2.3365 -19.5608,2.8669 -22.7573,0.7256 -4.5738,-3.0638 -7.9108,-14.4273 -8.4826,-28.8845 -0.177,-4.4771 0.028,-8.7378 0.4565,-9.4684 1.1778,-2.01 7.2069,-2.8816 20.0624,-2.9002 9.7346,-0.014 17.9268,0.9799 18.7738,2.2779 0.1089,0.1667 0.046,4.4058 -0.1385,9.42 z m 7.9128,-9.4789 c -0.4363,3.9243 -5.3284,4.2056 -6.7943,0.3914 -0.6161,-1.6029 -0.2236,-2.5273 1.5413,-3.6298 2.6378,-1.6479 5.5938,0.1744 5.253,3.2384 z"
         inkscape:connector-curvature="0" />
      <path
         inkscape:connector-curvature="0"
         d="m 3758.713,1054.3903 c -1.9183,2.5196 -4.2713,2.6097 -5.52,0.2112 -1.3419,-2.5774 0.076,-5.5313 2.631,-5.4806 3.3298,0.066 4.8038,2.7545 2.889,5.2694 z m 40.4441,40.0501 c 3.7448,6.435 5.9738,14.8723 4.8423,18.3306 -1.2494,3.8191 -5.8442,7.2586 -11.1398,8.3393 -6.8295,1.3936 -23.8282,1.0884 -28.2805,-0.508 -8.7666,-3.143 -10.7456,-10.6991 -5.6823,-21.6958 4.503,-9.78 5.1489,-10.4297 7.4741,-7.5174 1.7433,2.1835 1.6733,3.162 -0.5743,8.04 -4.2801,9.2887 -4.0387,12.273 1.1067,13.6777 2.2373,0.6107 2.4313,0.2454 3.8564,-7.266 1.9365,-10.2058 2.1105,-10.5915 5.0151,-11.1249 2.361,-0.4337 2.4021,-0.2794 1.1589,4.3548 -0.7089,2.6424 -1.2948,7.3651 -1.3021,10.4948 l -0.013,5.6903 4.6553,0.1059 4.6553,0.1059 0.099,-4.4577 c 0.054,-2.4519 -0.5218,-7.1691 -1.2802,-10.4827 -1.3364,-5.8392 -1.2953,-6.0197 1.3315,-5.8548 2.6607,0.1669 2.7425,0.3473 4.4562,9.8278 1.6613,9.1907 1.8466,9.6192 3.8322,8.8584 4.4356,-1.6996 5.3175,-4.5888 3.0817,-10.0972 -1.1635,-2.8666 -2.6552,-5.8879 -3.3148,-6.7141 -1.0925,-1.3684 0.7352,-6.3129 2.5028,-6.771 0.385,-0.1 1.969,1.9991 3.52,4.6641 z m 0.3964,-31.926 c -0.5714,15.4848 -3.202,25.0674 -7.9143,28.8296 -2.9265,2.3365 -19.5608,2.8669 -22.7573,0.7256 -4.5738,-3.0638 -7.9108,-14.4273 -8.4826,-28.8845 -0.177,-4.4771 0.028,-8.7378 0.4565,-9.4684 1.1778,-2.01 7.2069,-2.8816 20.0624,-2.9002 9.7346,-0.014 17.9268,0.9799 18.7738,2.2779 0.1089,0.1667 0.046,4.4058 -0.1385,9.42 z m 7.9128,-9.4789 c -0.4363,3.9243 -5.3284,4.2056 -6.7943,0.3914 -0.6161,-1.6029 -0.2236,-2.5273 1.5413,-3.6298 2.6378,-1.6479 5.5938,0.1744 5.253,3.2384 z"
         style="opacity:0.5;fill:#008000"
         id="path10727" />
      <rect
         style="color:#000000;clip-rule:nonzero;display:inline;overflow:visible;visibility:visible;opacity:0.75;isolation:auto;mix-blend-mode:normal;color-interpolation:sRGB;color-interpolation-filters:linearRGB;solid-color:#000000;solid-opacity:1;fill:none;fill-opacity:1;fill-rule:nonzero;stroke:#bc5fd3;stroke-width:3.91296983;stroke-linecap:butt;stroke-linejoin:miter;stroke-miterlimit:4;stroke-dasharray:none;stroke-dashoffset:0;stroke-opacity:1;color-rendering:auto;image-rendering:auto;shape-rendering:auto;text-rendering:auto;enable-background:accumulate"
         id="rect10729"
         width="186.51559"
         height="177.94418"
         x="3889.0344"
         y="896.83691" />
      <path
         inkscape:connector-curvature="0"
         d="m 4217.2325,1046.4613 c 2.9038,-3.814 6.4657,-3.9504 8.3559,-0.3197 2.0313,3.9015 -0.1151,8.373 -3.9827,8.2962 -5.0405,-0.1 -7.2717,-4.1696 -4.3732,-7.9765 z m -61.222,-60.62567 c -5.6687,-9.74085 -9.0429,-22.51278 -7.3301,-27.74787 1.8913,-5.7811 8.8467,-10.98768 16.8629,-12.62353 10.3381,-2.10954 36.0698,-1.64757 42.8094,0.76897 13.2704,4.7577 16.2661,16.19569 8.6016,32.84187 -6.8164,14.80447 -7.7941,15.78798 -11.3139,11.37943 -2.6389,-3.30522 -2.533,-4.78639 0.8693,-12.17042 6.479,-14.06075 6.1136,-18.57819 -1.6752,-20.70455 -3.3867,-0.92445 -3.6804,-0.37144 -5.8376,10.99887 -2.9314,15.44894 -3.1948,16.03282 -7.5916,16.84028 -3.574,0.65648 -3.6362,0.42289 -1.7543,-6.59209 1.0731,-3.99996 1.96,-11.14888 1.9711,-15.88649 l 0.02,-8.61368 -7.0469,-0.16032 -7.0469,-0.16023 -0.1499,6.74785 c -0.082,3.71148 0.7899,10.85219 1.9379,15.86815 2.023,8.83895 1.9607,9.11221 -2.0156,8.8626 -4.0276,-0.25269 -4.1514,-0.52573 -6.7455,-14.8768 -2.5148,-13.91242 -2.7953,-14.56104 -5.801,-13.40936 -6.7143,2.57278 -8.0493,6.94635 -4.6649,15.28466 1.7613,4.33926 4.0193,8.9128 5.0178,10.16342 1.6537,2.07138 -1.1129,9.55608 -3.7886,10.24951 -0.5828,0.15107 -2.9806,-3.02608 -5.3284,-7.06027 z m -0.6001,48.32787 c 0.865,-23.44 4.847,-37.9456 11.9802,-43.64065 4.43,-3.53684 29.6101,-4.33979 34.4488,-1.09838 6.9235,4.63783 11.9749,21.83913 12.8405,43.72373 0.2679,6.7772 -0.042,13.2268 -0.6911,14.3327 -1.7828,3.0427 -10.9094,4.3621 -30.3693,4.3902 -14.7357,0.021 -27.1366,-1.4833 -28.4188,-3.4482 -0.1648,-0.2523 -0.07,-6.6692 0.2097,-14.2594 z m -11.978,14.3486 c 0.6605,-5.9404 8.0659,-6.3662 10.2849,-0.5925 0.9326,2.4264 0.3385,3.8257 -2.3332,5.4946 -3.9929,2.4945 -8.4675,-0.264 -7.9517,-4.9021 z"
         style="opacity:0.5;fill:#008000"
         id="path10757" />
      <path
         id="path10759"
         style="opacity:0.5;fill:#008000"
         d="m 4303.0627,1154.9932 c 4.7502,-0.6437 7.3652,1.7786 6.1345,5.6824 -1.3226,4.1952 -6.0019,5.8391 -8.6824,3.05 -3.4936,-3.6348 -2.1937,-8.09 2.5479,-8.7324 z m -0.4217,-86.1594 c 2.8795,-10.8962 9.5246,-22.3132 14.4375,-24.8037 5.4253,-2.7505 14.025,-1.5139 20.85,2.9976 8.8018,5.8184 26.6702,24.3401 29.7271,30.8146 6.0194,12.7477 0.05,22.9538 -17.1404,29.3049 -15.2883,5.6484 -16.6752,5.6524 -16.0466,0.047 0.4712,-4.2031 1.5933,-5.1755 9.2205,-7.9911 14.5238,-5.361 17.4597,-8.8137 13.4557,-15.8248 -1.741,-3.0485 -2.3397,-2.8651 -11.9052,3.6495 -12.9969,8.8513 -13.596,9.0779 -17.2759,6.5398 -2.9913,-2.0629 -2.8702,-2.2721 3.4209,-5.9018 3.5871,-2.0696 9.2693,-6.4974 12.6271,-9.8396 l 6.1047,-6.0769 -4.8695,-5.0964 -4.8697,-5.0961 -4.8773,4.6655 c -2.6822,2.5665 -7.1152,8.232 -9.8503,12.5907 -4.8196,7.6806 -5.0568,7.8297 -7.6919,4.8416 -2.6694,-3.0266 -2.5638,-3.3073 5.7496,-15.2893 8.0594,-11.6157 8.3196,-12.2729 5.3799,-13.5838 -6.5669,-2.9286 -10.6035,-0.7798 -14.1064,7.5093 -1.823,4.3137 -3.4603,9.1443 -3.6386,10.7347 -0.2952,2.6341 -7.5441,5.9702 -9.9264,4.5686 -0.5189,-0.3053 0.032,-4.2474 1.2246,-8.7602 z m -34.5972,33.7487 c 17.1861,-15.9631 30.2588,-23.4042 39.3298,-22.3873 5.6334,0.6316 24.0062,17.8687 25.1356,23.5822 1.6162,8.1751 -6.9751,23.9102 -21.8378,39.9969 -4.6027,4.9816 -9.3826,9.3229 -10.6233,9.6462 -3.4123,0.8907 -10.7986,-4.6298 -24.5788,-18.37 -10.4347,-10.4047 -18.1397,-20.2373 -17.6568,-22.5333 0.062,-0.2951 4.6666,-4.7651 10.2313,-9.9347 z m -18.6158,1.6763 c 4.6675,-3.7335 10.2049,1.2018 7.6914,6.8535 -1.0563,2.3752 -2.4659,2.9445 -5.535,2.2355 -4.5874,-1.0595 -5.8009,-6.1743 -2.1564,-9.089 z"
         inkscape:connector-curvature="0" />
      <path
         style="fill:#0000ff;fill-rule:evenodd;stroke:#0000ff;stroke-width:1;stroke-linecap:butt;stroke-linejoin:miter;stroke-miterlimit:4;stroke-dasharray:none;stroke-opacity:1"
         d="m 4185.2782,1020.2843 0,62.6397"
         id="path10761"
         inkscape:connector-curvature="0" />
      <path
         inkscape:connector-curvature="0"
         id="path10763"
         d="m 4185.0053,1020.3562 62.6397,0"
         style="fill:none;fill-rule:evenodd;stroke:#000000;stroke-width:1;stroke-linecap:butt;stroke-linejoin:miter;stroke-miterlimit:4;stroke-dasharray:none;stroke-opacity:1" />
      <path
         style="color:#000000;clip-rule:nonzero;display:inline;overflow:visible;visibility:visible;opacity:0.75;isolation:auto;mix-blend-mode:normal;color-interpolation:sRGB;color-interpolation-filters:linearRGB;solid-color:#000000;solid-opacity:1;fill:none;fill-opacity:1;fill-rule:nonzero;stroke:#bc5fd3;stroke-width:3.91296983;stroke-linecap:butt;stroke-linejoin:miter;stroke-miterlimit:4;stroke-dasharray:none;stroke-dashoffset:0;stroke-opacity:1;color-rendering:auto;image-rendering:auto;shape-rendering:auto;text-rendering:auto;enable-background:accumulate"
         id="path10765"
         sodipodi:type="arc"
         sodipodi:cx="4185.5063"
         sodipodi:cy="1020.4518"
         sodipodi:rx="43.3321"
         sodipodi:ry="43.3321"
         sodipodi:start="1.5707963"
         sodipodi:end="0"
         d="m 4185.5063,1063.7839 a 43.3321,43.3321 0 0 1 -40.0336,-26.7496 43.3321,43.3321 0 0 1 9.3932,-47.22294 43.3321,43.3321 0 0 1 47.2229,-9.39322 43.3321,43.3321 0 0 1 26.7496,40.03366 l -43.3321,0 z" />
      <text
         xml:space="preserve"
         style="font-style:normal;font-weight:normal;font-size:13.6201067px;line-height:125%;font-family:Sans;letter-spacing:0px;word-spacing:0px;fill:#000000;fill-opacity:1;stroke:none;stroke-width:1px;stroke-linecap:butt;stroke-linejoin:miter;stroke-opacity:1"
         x="4171.1997"
         y="1010.1183"
         id="text10767"
         sodipodi:linespacing="125%"><tspan
           sodipodi:role="line"
           id="tspan10769"
           x="4171.1997"
           y="1010.1183">$\theta_1$</tspan></text>
      <path
         style="fill:none;fill-rule:evenodd;stroke:#000000;stroke-width:1;stroke-linecap:butt;stroke-linejoin:miter;stroke-miterlimit:4;stroke-dasharray:none;stroke-opacity:1"
         d="m 4296.9825,1116.5143 62.6397,0"
         id="path10773"
         inkscape:connector-curvature="0" />
      <path
         style="color:#000000;clip-rule:nonzero;display:inline;overflow:visible;visibility:visible;opacity:0.75;isolation:auto;mix-blend-mode:normal;color-interpolation:sRGB;color-interpolation-filters:linearRGB;solid-color:#000000;solid-opacity:1;fill:none;fill-opacity:1;fill-rule:nonzero;stroke:#bc5fd3;stroke-width:3.93000007;stroke-linecap:butt;stroke-linejoin:miter;stroke-miterlimit:4;stroke-dasharray:none;stroke-dashoffset:0;stroke-opacity:1;color-rendering:auto;image-rendering:auto;shape-rendering:auto;text-rendering:auto;enable-background:accumulate"
         id="path10777"
         sodipodi:type="arc"
         sodipodi:cx="4297.2554"
         sodipodi:cy="1116.4424"
         sodipodi:rx="39.434475"
         sodipodi:ry="39.434475"
         sodipodi:start="2.3753931"
         sodipodi:end="0"
         d="m 4268.8408,1143.7863 a 39.434475,39.434475 0 0 1 -5.4815,-47.4966 39.434475,39.434475 0 0 1 44.346,-17.872 39.434475,39.434475 0 0 1 28.9845,38.0247 l -39.4344,0 z" />
      <path
         style="fill:none;fill-rule:evenodd;stroke:#0000ff;stroke-width:1px;stroke-linecap:butt;stroke-linejoin:miter;stroke-opacity:1"
         d="m 4297.8279,1116.5143 -42.5,39.8304"
         id="path10779"
         inkscape:connector-curvature="0" />
      <text
         sodipodi:linespacing="125%"
         id="text10781"
         y="1107.2611"
         x="4304.4141"
         style="font-style:normal;font-weight:normal;font-size:13.6201067px;line-height:125%;font-family:Sans;letter-spacing:0px;word-spacing:0px;fill:#000000;fill-opacity:1;stroke:none;stroke-width:1px;stroke-linecap:butt;stroke-linejoin:miter;stroke-opacity:1"
         xml:space="preserve"><tspan
           y="1107.2611"
           x="4304.4141"
           id="tspan10783"
           sodipodi:role="line">$\theta_2$</tspan></text>
      <path
         style="fill:none;fill-rule:evenodd;stroke:#000000;stroke-width:1px;stroke-linecap:butt;stroke-linejoin:miter;stroke-opacity:1;marker-start:url(#Arrow1Lstart);marker-end:url(#Arrow1Lend)"
         d="m 4185.5064,1020.4518 111.4761,96.0625"
         id="path10785"
         inkscape:connector-curvature="0" />
      <text
         sodipodi:linespacing="125%"
         id="text11117"
         y="1064.7611"
         x="4241.5566"
         style="font-style:normal;font-weight:normal;font-size:13.6201067px;line-height:125%;font-family:Sans;letter-spacing:0px;word-spacing:0px;fill:#000000;fill-opacity:1;stroke:none;stroke-width:1px;stroke-linecap:butt;stroke-linejoin:miter;stroke-opacity:1"
         xml:space="preserve"><tspan
           y="1064.7611"
           x="4241.5566"
           id="tspan11119"
           sodipodi:role="line">$\mathbf{\delta_t}$</tspan></text>
      <text
         xml:space="preserve"
         style="font-style:normal;font-weight:normal;font-size:40px;line-height:125%;font-family:Sans;letter-spacing:0px;word-spacing:0px;fill:#000000;fill-opacity:1;stroke:none;stroke-width:1px;stroke-linecap:butt;stroke-linejoin:miter;stroke-opacity:1"
         x="4143.978"
         y="1184.1056"
         id="text11121"
         sodipodi:linespacing="125%"><tspan
           sodipodi:role="line"
           id="tspan11123"
           x="4143.978"
           y="1184.1056"
           style="font-size:13.625px">$\delta_\theta = \theta_1 - \theta_2$</tspan></text>
      <rect
         y="926.28357"
         x="4119.5015"
         height="283.66406"
         width="297.32791"
         id="rect11125"
         style="color:#000000;clip-rule:nonzero;display:inline;overflow:visible;visibility:visible;opacity:0.75;isolation:auto;mix-blend-mode:normal;color-interpolation:sRGB;color-interpolation-filters:linearRGB;solid-color:#000000;solid-opacity:1;fill:none;fill-opacity:1;fill-rule:nonzero;stroke:#bc5fd3;stroke-width:3.9000001;stroke-linecap:butt;stroke-linejoin:miter;stroke-miterlimit:4;stroke-dasharray:none;stroke-dashoffset:0;stroke-opacity:1;color-rendering:auto;image-rendering:auto;shape-rendering:auto;text-rendering:auto;enable-background:accumulate" />
      <path
         style="color:#000000;clip-rule:nonzero;display:inline;overflow:visible;visibility:visible;opacity:0.75;isolation:auto;mix-blend-mode:normal;color-interpolation:sRGB;color-interpolation-filters:linearRGB;solid-color:#000000;solid-opacity:1;fill:none;fill-opacity:1;fill-rule:nonzero;stroke:#bc5fd3;stroke-width:3.9000001;stroke-linecap:butt;stroke-linejoin:miter;stroke-miterlimit:4;stroke-dasharray:3.9000001, 3.9000001;stroke-dashoffset:0;stroke-opacity:1;color-rendering:auto;image-rendering:auto;shape-rendering:auto;text-rendering:auto;enable-background:accumulate"
         d="m 4075.55,896.83691 43.9515,30.57639"
         id="path11127"
         inkscape:connector-curvature="0" />
      <path
         style="color:#000000;clip-rule:nonzero;display:inline;overflow:visible;visibility:visible;opacity:0.75;isolation:auto;mix-blend-mode:normal;color-interpolation:sRGB;color-interpolation-filters:linearRGB;solid-color:#000000;solid-opacity:1;fill:none;fill-opacity:1;fill-rule:nonzero;stroke:#bc5fd3;stroke-width:3.9000001;stroke-linecap:butt;stroke-linejoin:miter;stroke-miterlimit:4;stroke-dasharray:3.9000001, 3.9000001;stroke-dashoffset:0;stroke-opacity:1;color-rendering:auto;image-rendering:auto;shape-rendering:auto;text-rendering:auto;enable-background:accumulate"
         d="m 4075.55,1074.7811 43.9515,135.1665"
         id="path11129"
         inkscape:connector-curvature="0" />
      <text
         xml:space="preserve"
         style="font-style:normal;font-weight:normal;font-size:20px;line-height:125%;font-family:Sans;letter-spacing:0px;word-spacing:0px;fill:#000000;fill-opacity:1;stroke:none;stroke-width:1px;stroke-linecap:butt;stroke-linejoin:miter;stroke-opacity:1"
         x="3827.321"
         y="1159.5392"
         id="text11145"
         sodipodi:linespacing="125%"><tspan
           sodipodi:role="line"
           id="tspan11147"
           x="3827.321"
           y="1159.5392">Scene</tspan></text>
      <text
         sodipodi:linespacing="125%"
         id="text11149"
         y="1238.1554"
         x="4177.2852"
         style="font-style:normal;font-weight:normal;font-size:20px;line-height:125%;font-family:Sans;letter-spacing:0px;word-spacing:0px;fill:#000000;fill-opacity:1;stroke:none;stroke-width:1px;stroke-linecap:butt;stroke-linejoin:miter;stroke-opacity:1"
         xml:space="preserve"><tspan
           y="1238.1554"
           x="4177.2852"
           id="tspan11151"
           sodipodi:role="line">Relative transform</tspan></text>
    </g>
  </g>
</svg>
