<?xml version="1.0" encoding="UTF-8" standalone="no"?>
<!-- Created with Inkscape (http://www.inkscape.org/) -->

<svg
   xmlns:dc="http://purl.org/dc/elements/1.1/"
   xmlns:cc="http://creativecommons.org/ns#"
   xmlns:rdf="http://www.w3.org/1999/02/22-rdf-syntax-ns#"
   xmlns:svg="http://www.w3.org/2000/svg"
   xmlns="http://www.w3.org/2000/svg"
   xmlns:sodipodi="http://sodipodi.sourceforge.net/DTD/sodipodi-0.dtd"
   xmlns:inkscape="http://www.inkscape.org/namespaces/inkscape"
   width="862.61224mm"
   height="522.39966mm"
   viewBox="0 0 3056.5001 1851.0223"
   id="svg11314"
   version="1.1"
   inkscape:version="0.91 r13725"
   sodipodi:docname="max_mixture.svg">
  <defs
     id="defs11316" />
  <sodipodi:namedview
     id="base"
     pagecolor="#ffffff"
     bordercolor="#666666"
     borderopacity="1.0"
     inkscape:pageopacity="0.0"
     inkscape:pageshadow="2"
     inkscape:zoom="0.175"
     inkscape:cx="2451.5662"
     inkscape:cy="1496.3377"
     inkscape:document-units="px"
     inkscape:current-layer="layer1"
     showgrid="false"
     fit-margin-top="0"
     fit-margin-left="0"
     fit-margin-right="0"
     fit-margin-bottom="0"
     inkscape:window-width="1920"
     inkscape:window-height="1200"
     inkscape:window-x="1680"
     inkscape:window-y="0"
     inkscape:window-maximized="0" />
  <metadata
     id="metadata11319">
    <rdf:RDF>
      <cc:Work
         rdf:about="">
        <dc:format>image/svg+xml</dc:format>
        <dc:type
           rdf:resource="http://purl.org/dc/dcmitype/StillImage" />
        <dc:title></dc:title>
      </cc:Work>
    </rdf:RDF>
  </metadata>
  <g
     inkscape:label="Layer 1"
     inkscape:groupmode="layer"
     id="layer1"
     transform="translate(1561.1072,597.82693)">
    <rect
       style="color:#000000;font-style:normal;font-weight:normal;font-size:12px;font-family:Dialog;clip-rule:nonzero;display:inline;overflow:visible;visibility:visible;opacity:0.75;isolation:auto;mix-blend-mode:normal;color-interpolation:sRGB;color-interpolation-filters:linearRGB;solid-color:#000000;solid-opacity:1;fill:none;fill-opacity:1;fill-rule:evenodd;stroke:#000000;stroke-width:4;stroke-linecap:butt;stroke-linejoin:miter;stroke-miterlimit:10;stroke-dasharray:none;stroke-dashoffset:0;stroke-opacity:1;color-rendering:auto;image-rendering:auto;shape-rendering:auto;text-rendering:auto;enable-background:accumulate"
       id="rect11120"
       width="2883.9287"
       height="1677.6667"
       x="-1390.5358"
       y="-595.04266" />
    <path
       d="m -1386.8836,988.8429 14.38,-15.3797 14.38,-15.826 14.38,-16.2617 14.38,-16.6853 14.38,-17.0952 14.38,-17.489 14.38,-17.86509 14.38,-18.2215 14.38,-18.5559 14.38,-18.8668 14.38,-19.1522 14.38,-19.4098 14.38,-19.6383 14.38,-19.8353 14.38,-19.9994 14.3801,-20.1289 14.38,-20.222 14.38,-20.2772 14.38,-20.2931 14.38,-20.2685 14.38,-20.2022 14.38,-20.0929 14.38,-19.94 14.38,-19.7427 14.38,-19.5003 14.38,-19.2124 14.37997,-18.8787 14.38,-18.4995 14.38,-18.0745 14.38,-17.6044 14.38,-17.0895 14.38,-16.5305 14.37999,-15.9284 14.38,-15.2846 14.38,-14.6 14.38,-13.8764 14.38,-13.1156 14.3799,-12.3192 14.38,-11.4897 14.3801,-10.6291 14.38,-9.7399 14.38,-8.825 14.38,-7.8868 14.38,-6.9284 14.38,-5.953 14.38,-4.9634 14.38,-3.9635 14.38,-2.9558 14.38,-1.9447 14.38,-0.9331 14.38,0.075 14.38,1.0765 14.38,2.0676 14.38,3.044 14.38,4.0029 14.38,4.9402 14.38,5.8525 14.3799,6.736 14.38,7.5877 14.3801,8.4037 14.3801,9.1809 14.38,9.9162 14.3798,10.6064 14.38,11.2484 14.3801,11.8396 14.3801,12.3772 14.38,12.8587 14.3799,13.2817 14.38,13.6441 14.37985,13.9437 14.38,14.1788 14.38,14.3482 14.38,14.4494 14.38,14.4826 14.38,14.4454 14.38,14.338 14.38,14.1596 14.38,13.9096 14.38,13.588 14.38,13.1951 14.38,12.7311 14.38,12.1964 14.3799,11.5923 14.38,10.9194 14.3801,10.1793 14.3801,9.3735 14.38,8.5034 14.3798,7.5716 14.38,6.5802 14.380104,5.5315 14.3801,4.4286 14.38,3.2743 14.3799,2.0718 14.38,0.8249 14.38,-0.463 14.3800003,-1.7877 14.38,-3.1451 14.3799997,-4.5309 14.38,-5.9402 14.38,-7.3683 14.38,-8.8102 14.38,-10.2607 14.38,-11.7143 14.379896,-13.1656 14.38,-14.6088 14.38,-16.0381 14.3801,-17.4475 14.38,-18.8314 14.3802,-20.1831 14.3798,-21.4971 14.3799,-22.7671 14.3802,-23.9868 14.3798,-25.1505 14.3802,-26.2519 14.3799,-27.2856 14.3798,-28.2456 14.3802,-29.1263 14.3798,-29.9227 14.3802,-30.6294 14.3801,-31.2419 14.3799,-31.7554 14.3801,-32.166 14.3799,-32.469996 14.3801,-32.664 14.3799,-32.7447 14.3799,-32.7100997 14.3801,-32.5582003 14.3799,-32.2873 14.3801,-31.896804 14.3799,-31.3861 14.3801,-30.7555 14.3802,-30.0058 14.3798,-29.1383 14.3802,-28.1548 14.3798,-27.0584 14.3799,-25.8516 14.3802,-24.5383 14.3798,-23.123 14.3802,-21.6099 14.3799,-20.0049 14.3798,-18.3135 14.3802,-16.542 14.3798,-14.6972 14.3802,-12.786 14.3801,-10.816 14.3799,-8.7947 14.3801,-6.7307 14.3799,-4.6315 14.3801,-2.5062 14.3799,-0.3627 14.3799,1.79 14.3801,3.9431 14.3799,6.0888 14.3801,8.2178 14.3799,10.3222 14.3801,12.3936 14.3802,14.4243 14.3798,16.4065 14.3802,18.333 14.3798,20.1967 14.3799,21.9914 14.3802,23.7107 14.3798,25.3489 14.3802,26.9015 14.3799,28.3632 14.37979,29.7302 14.3802,30.9991 14.3798,32.1672 14.3802,33.2314 14.3801,34.190804 14.3799,35.0437 14.3801,35.7896 14.3799,36.4282 14.3801,36.9602 14.3799,37.3867 14.3799,37.708596 14.3801,37.9287 14.3799,38.0485 14.3801,38.0715 14.3799,38.0007 14.3801,37.8393 14.3802,37.5917 14.3798,37.262 14.3802,36.854 14.3798,36.3731 14.3799,35.8238 14.3802,35.2105 14.3798,34.5394 14.3802,33.8142 14.3799,33.041 14.3798,32.2245 14.3802,31.37 14.3798,30.4823 14.3802,29.5664 14.3801,28.627 14.3799,27.6692 14.3801,26.697 14.3799,25.715 14.3801,24.72719 14.3799,23.7375"
       style="font-style:normal;font-weight:normal;font-size:12px;font-family:Dialog;color-interpolation:linearRGB;fill:none;fill-opacity:1;fill-rule:evenodd;stroke:#0000ff;stroke-width:10;stroke-linecap:butt;stroke-linejoin:round;stroke-miterlimit:10;stroke-dasharray:none;stroke-dashoffset:0;stroke-opacity:1;color-rendering:optimizeQuality;image-rendering:optimizeQuality;shape-rendering:auto;text-rendering:geometricPrecision"
       id="path10398"
       inkscape:connector-curvature="0" />
    <path
       d="m -1386.8836,988.8444 14.38,-15.3796 14.38,-15.8255 14.38,-16.2613 14.38,-16.685 14.38,-17.0945 14.38,-17.4884 14.38,-17.86419 14.38,-18.2205 14.38,-18.5548 14.38,-18.8655 14.38,-19.1505 14.38,-19.4079 14.38,-19.6359 14.38,-19.8328 14.38,-19.9963 14.3801,-20.1251 14.38,-20.2177 14.38,-20.2721 14.38,-20.2873 14.38,-20.2616 14.38,-20.1941 14.38,-20.0835 14.38,-19.9292 14.38,-19.7299 14.38,-19.4854 14.38,-19.1952 14.37997,-18.859 14.38,-18.4765 14.38,-18.048 14.38,-17.5738 14.38,-17.0541 14.38,-16.49 14.37999,-15.8818 14.38,-15.231 14.38,-14.5388 14.38,-13.8061 14.38,-13.0353 14.3799,-12.2277 14.38,-11.3852 14.3801,-10.5102 14.38,-9.6047 14.38,-8.6715 14.38,-7.7127 14.38,-6.7312 14.38,-5.73 14.38,-4.7117 14.38,-3.6792 14.38,-2.636 14.38,-1.5849 14.38,-0.5287 14.38,0.5287 14.38,1.5849 14.38,2.636 14.38,3.6792 14.38,4.7117 14.38,5.73 14.38,6.7312 14.3799,7.7127 14.38,8.6715 14.3801,9.6047 14.3801,10.5102 14.38,11.3852 14.3798,12.2277 14.38,13.0353 14.3801,13.8061 14.3801,14.5388 14.38,15.231 14.3799,15.8818 14.38,16.49 14.37985,17.0541 14.38,17.5738 14.38,18.048 14.38,18.4765 14.38,18.859 14.38,19.1952 14.38,19.4854 14.38,19.7299 14.38,19.9292 14.38,20.0835 14.38,20.1941 14.38,20.2616 14.38,20.2873 14.3799,20.2721 14.38,20.2177 14.3801,20.1251 14.3801,19.9963 14.38,19.8328 14.3798,19.6359 14.38,19.4079 14.380104,19.1505 14.3801,18.8655 14.38,18.5548 14.3799,18.2205 14.38,17.86419 14.38,17.4884 14.3800003,17.0945 14.38,16.685 14.3799997,16.2613 14.38,-14.8312 14.38,-22.7479 14.38,-23.7352 14.38,-24.72459 14.38,-25.7121 14.379896,-26.6936 14.38,-27.6653 14.38,-28.6226 14.3801,-29.5613 14.38,-30.4765 14.3802,-31.3632 14.3798,-32.2168 14.3799,-33.0323 14.3802,-33.8042 14.3798,-34.5278 14.3802,-35.1976 14.3799,-35.8089 14.3798,-36.3563 14.3802,-36.8351 14.3798,-37.2402 14.3802,-37.5673 14.3801,-37.8117 14.3799,-37.9693 14.3801,-38.0362 14.3799,-38.0088 14.3801,-37.8837 14.3799,-37.658196 14.3799,-37.3299 14.3801,-36.8965 14.3799,-36.3567 14.3801,-35.7094 14.3799,-34.9541 14.3801,-34.090604 14.3802,-33.1195 14.3798,-32.0422 14.3802,-30.86 14.3798,-29.5751 14.3799,-28.1908 14.3802,-26.7098 14.3798,-25.1365 14.3802,-23.475 14.3799,-21.7305 14.3798,-19.9081 14.3802,-18.0141 14.3798,-16.0545 14.3802,-14.0361 14.3801,-11.9662 14.3799,-9.8517 14.3801,-7.7011 14.3799,-5.5213 14.3801,-3.3212 14.3799,-1.1084 14.3799,1.1084 14.3801,3.3212 14.3799,5.5213 14.3801,7.7011 14.3799,9.8517 14.3801,11.9662 14.3802,14.0361 14.3798,16.0545 14.3802,18.0141 14.3798,19.9081 14.3799,21.7305 14.3802,23.475 14.3798,25.1365 14.3802,26.7098 14.3799,28.1908 14.37979,29.5751 14.3802,30.86 14.3798,32.0422 14.3802,33.1195 14.3801,34.090604 14.3799,34.9541 14.3801,35.7094 14.3799,36.3567 14.3801,36.8965 14.3799,37.3299 14.3799,37.658196 14.3801,37.8837 14.3799,38.0088 14.3801,38.0362 14.3799,37.9693 14.3801,37.8117 14.3802,37.5673 14.3798,37.2402 14.3802,36.8351 14.3798,36.3563 14.3799,35.8089 14.3802,35.1976 14.3798,34.5278 14.3802,33.8042 14.3799,33.0323 14.3798,32.2168 14.3802,31.3632 14.3798,30.4765 14.3802,29.5613 14.3801,28.6226 14.3799,27.6653 14.3801,26.6936 14.3799,25.7121 14.3801,24.72459 14.3799,23.7352"
       style="font-style:normal;font-weight:normal;font-size:12px;font-family:Dialog;color-interpolation:linearRGB;fill:none;fill-opacity:1;fill-rule:evenodd;stroke:#ff0000;stroke-width:10;stroke-linecap:butt;stroke-linejoin:round;stroke-miterlimit:10;stroke-dasharray:none;stroke-dashoffset:0;stroke-opacity:1;color-rendering:optimizeQuality;image-rendering:optimizeQuality;shape-rendering:auto;text-rendering:geometricPrecision"
       id="path10400"
       inkscape:connector-curvature="0" />
    <g
       style="font-style:normal;font-weight:normal;font-size:12px;font-family:Dialog;color-interpolation:auto;fill:#000000;fill-opacity:1;stroke:#000000;stroke-width:1;stroke-linecap:square;stroke-linejoin:miter;stroke-miterlimit:10;stroke-dasharray:none;stroke-dashoffset:0;stroke-opacity:1;color-rendering:auto;image-rendering:auto;shape-rendering:auto;text-rendering:auto"
       id="g11105"
       transform="matrix(5.2838523,0,0,5.2838523,-18020.35,-1422.1348)">
      <g
         style="color-interpolation:sRGB;fill:#ffffff;stroke:#ffffff;color-rendering:optimizeSpeed;image-rendering:optimizeSpeed;shape-rendering:crispEdges;text-rendering:optimizeSpeed"
         id="g10402">
        <path
           style="stroke:none"
           d="m 3159,202 0,-35 186,0 0,35 z"
           id="path10404"
           inkscape:connector-curvature="0" />
      </g>
      <g
         transform="translate(3196,176.6377)"
         style="font-family:SansSerif;color-interpolation:linearRGB;color-rendering:optimizeQuality;image-rendering:optimizeQuality;text-rendering:geometricPrecision"
         id="g10406">
        <text
           x="0"
           xml:space="preserve"
           y="4.5"
           style="stroke:none"
           id="text10408">Gaussian Mixture Model</text>
      </g>
      <g
         style="color-interpolation:linearRGB;fill:#0000ff;stroke:#0000ff;stroke-width:1.89255857;stroke-linecap:butt;stroke-linejoin:round;stroke-miterlimit:10;stroke-dasharray:none;color-rendering:optimizeQuality;image-rendering:optimizeQuality;text-rendering:geometricPrecision"
         id="g10410">
        <line
           y2="176.6377"
           style="fill:none;stroke-width:1.89255857;stroke-miterlimit:10;stroke-dasharray:none"
           x1="3163"
           x2="3193"
           y1="176.6377"
           id="line10412" />
      </g>
      <g
         transform="translate(3196,192.3623)"
         style="font-family:SansSerif;color-interpolation:linearRGB;color-rendering:optimizeQuality;image-rendering:optimizeQuality;text-rendering:geometricPrecision"
         id="g10414">
        <text
           x="0"
           xml:space="preserve"
           y="4.5"
           style="stroke:none"
           id="text10416">Max Mixture Model</text>
      </g>
      <g
         style="color-interpolation:linearRGB;fill:#ff0000;stroke:#ff0000;stroke-width:0.66670001;stroke-linecap:butt;stroke-linejoin:round;color-rendering:optimizeQuality;image-rendering:optimizeQuality;text-rendering:geometricPrecision"
         id="g10418">
        <line
           y2="192.3623"
           style="fill:none;stroke-width:1.89255857;stroke-miterlimit:10;stroke-dasharray:none"
           x1="3163"
           x2="3193"
           y1="192.3623"
           id="line10420" />
        <path
           d="m 3159,202 0,-35 186,0 0,35 z"
           style="fill:none;fill-rule:evenodd;stroke:#262626;stroke-linejoin:miter"
           id="path10422"
           inkscape:connector-curvature="0" />
      </g>
    </g>
    <text
       xml:space="preserve"
       style="font-style:normal;font-weight:normal;font-size:40px;line-height:125%;font-family:Sans;letter-spacing:0px;word-spacing:0px;fill:#000000;fill-opacity:1;stroke:none;stroke-width:1px;stroke-linecap:butt;stroke-linejoin:miter;stroke-opacity:1"
       x="27.930021"
       y="1179.9745"
       id="text42828"
       sodipodi:linespacing="125%"><tspan
         sodipodi:role="line"
         id="tspan42830"
         x="27.930021"
         y="1179.9745"
         style="font-size:68.75px">X</tspan></text>
    <text
       xml:space="preserve"
       style="font-style:normal;font-weight:normal;font-size:40px;line-height:125%;font-family:Sans;letter-spacing:0px;word-spacing:0px;fill:#000000;fill-opacity:1;stroke:none;stroke-width:1px;stroke-linecap:butt;stroke-linejoin:miter;stroke-opacity:1"
       x="-361.61908"
       y="-1445.7278"
       id="text42832"
       sodipodi:linespacing="125%"
       transform="matrix(0,-1,1,0,0,0)"><tspan
         sodipodi:role="line"
         id="tspan42834"
         x="-361.61908"
         y="-1445.7278"
         style="font-size:68.75px">PDF(X)</tspan></text>
    <path
       style="fill:none;fill-rule:evenodd;stroke:#000000;stroke-width:10.09360981;stroke-linecap:butt;stroke-linejoin:miter;stroke-miterlimit:4;stroke-dasharray:none;stroke-opacity:1"
       d="m -1561.1072,1079.5181 3056.4285,0"
       id="path42855"
       inkscape:connector-curvature="0" />
    <path
       style="fill:none;fill-rule:evenodd;stroke:#000000;stroke-width:10.28039074;stroke-linecap:butt;stroke-linejoin:miter;stroke-miterlimit:4;stroke-dasharray:none;stroke-opacity:1"
       d="m -1387.399,1253.1955 0,-1851.02243"
       id="path42857"
       inkscape:connector-curvature="0" />
  </g>
</svg>
